<svg width="131" height="51" viewBox="0 0 131 51" fill="none" xmlns="http://www.w3.org/2000/svg">
<path d="M42.2712 28.9327C42.1731 28.9327 42.075 28.9327 42.075 28.9327C40.5058 28.7365 39.2308 28.3442 38.0539 27.4615C37.9558 27.3635 37.9558 27.3635 37.8577 27.3635C37.2693 26.8731 36.7789 27.1673 36.4846 27.2654L36.3866 27.3635C34.9154 28.4423 33.2481 29.0308 31.2866 29.0308C29.2269 29.0308 27.5596 28.4423 25.9904 27.2654C25.4019 26.8731 25.0096 27.2654 25.0096 27.2654C23.4404 28.5404 21.675 29.1288 19.6154 29.1288C17.6539 29.1288 15.8885 28.5404 14.4173 27.3635C14.3193 27.2654 14.2212 27.2654 14.2212 27.1673C13.7308 26.775 13.2404 27.1673 13.2404 27.1673C11.7693 28.3442 10.1019 28.9327 8.23849 29.0308C8.23849 29.0308 7.65002 29.0308 7.65002 29.7173V41.4865C7.65002 42.4673 7.65002 43.5462 7.65002 44.3308C7.65002 44.625 7.84618 45.3115 8.72887 45.5077H26.8731C27.8539 45.3115 27.9519 44.625 27.9519 44.3308C27.9519 43.5462 27.9519 42.5654 27.9519 41.4865C27.9519 38.9365 27.9519 36.4846 27.9519 33.9346C28.05 33.6404 28.1481 33.3462 28.9327 33.3462C31.6789 33.3462 34.425 33.3462 37.1712 33.3462C37.3673 33.3462 37.4654 33.3462 37.6616 33.3462C37.9558 33.4442 38.25 33.6404 38.25 34.3269C38.25 36.7788 38.25 39.1327 38.25 41.4865C38.25 42.4673 38.25 43.35 38.25 44.1346C38.25 45.2135 39.0346 45.4096 39.2308 45.4096H41.9769C42.1731 45.4096 42.9577 45.2135 42.9577 44.1346C42.9577 43.35 42.9577 42.4673 42.9577 41.4865V30.0115C43.0558 29.2269 42.6635 29.0308 42.2712 28.9327ZM22.7539 40.2115C22.7539 40.3096 22.7539 40.4077 22.7539 40.5058C22.7539 40.8981 22.5577 41.4865 21.5769 41.4865C18.9289 41.4865 16.2808 41.4865 13.6327 41.4865C12.75 41.4865 12.5539 41.0942 12.4558 40.7019C12.4558 40.6038 12.4558 40.5058 12.4558 40.3096C12.4558 38.5442 12.4558 36.5827 12.4558 34.7192C12.4558 33.3462 13.2404 33.2481 13.5346 33.2481C16.2808 33.2481 19.125 33.2481 21.8712 33.2481C22.1654 33.2481 22.8519 33.4442 22.8519 34.5231C22.7539 36.4846 22.7539 38.3481 22.7539 40.2115Z" fill="#69933E"/>
<path d="M41.4865 25.0096C43.6442 25.5981 45.5077 25.2058 47.0769 23.6365C48.0577 22.6558 48.7442 21.4788 48.9404 20.2038C48.9404 20.1058 48.9404 20.0077 48.9404 20.0077C48.7442 19.5173 48.5481 19.0269 48.3519 18.6346C45.9981 14.4173 43.7423 10.2 41.4865 5.98269C41.1923 5.39423 40.5058 5.39423 40.3096 5.39423H10.3962C10.3962 5.39423 9.51347 5.39423 9.21924 5.98269C6.86539 10.2 4.60962 14.5154 2.35386 18.6346C2.1577 19.0269 1.96155 19.6154 1.96155 20.2038C1.96155 20.3019 1.96155 20.3019 1.96155 20.4C2.1577 21.7731 2.74616 22.95 3.72693 23.8327C5.49232 25.4019 7.45386 25.7942 9.8077 25.0096C11.0827 24.5192 11.9654 23.7346 12.75 22.5577C12.8481 22.4596 12.9462 22.3615 13.0442 22.2635C13.5346 21.9692 14.1231 22.0673 14.5154 22.5577C14.9077 23.1462 15.3981 23.7346 15.9865 24.1269C17.6539 25.4019 19.5173 25.5981 21.4789 25.0096C22.7539 24.6173 23.7346 23.7346 24.4212 22.5577C24.8135 21.9692 25.7942 21.8712 26.1865 22.5577C26.3827 22.7538 26.4808 23.0481 26.6769 23.2442C27.6577 24.4212 28.9327 25.1077 30.4039 25.3038C31.7769 25.5 33.15 25.1077 34.425 24.3231C35.1115 23.8327 35.7 23.2442 36.0923 22.5577C36.5827 21.9692 37.4654 21.9692 37.8577 22.5577C38.6423 23.8327 39.6231 24.6173 41.0942 25.0096H41.4865Z" fill="#69933E"/>
<path d="M61.23 37.231C59.624 37.231 58.172 36.956 56.874 36.406C55.598 35.856 54.586 35.064 53.838 34.03C53.09 32.996 52.705 31.775 52.683 30.367H57.633C57.699 31.313 58.029 32.061 58.623 32.611C59.239 33.161 60.075 33.436 61.131 33.436C62.209 33.436 63.056 33.183 63.672 32.677C64.288 32.149 64.596 31.467 64.596 30.631C64.596 29.949 64.387 29.388 63.969 28.948C63.551 28.508 63.023 28.167 62.385 27.925C61.769 27.661 60.911 27.375 59.811 27.067C58.315 26.627 57.094 26.198 56.148 25.78C55.224 25.34 54.421 24.691 53.739 23.833C53.079 22.953 52.749 21.787 52.749 20.335C52.749 18.971 53.09 17.783 53.772 16.771C54.454 15.759 55.411 14.989 56.643 14.461C57.875 13.911 59.283 13.636 60.867 13.636C63.243 13.636 65.168 14.219 66.642 15.385C68.138 16.529 68.963 18.135 69.117 20.203H64.035C63.991 19.411 63.65 18.762 63.012 18.256C62.396 17.728 61.571 17.464 60.537 17.464C59.635 17.464 58.909 17.695 58.359 18.157C57.831 18.619 57.567 19.29 57.567 20.17C57.567 20.786 57.765 21.303 58.161 21.721C58.579 22.117 59.085 22.447 59.679 22.711C60.295 22.953 61.153 23.239 62.253 23.569C63.749 24.009 64.97 24.449 65.916 24.889C66.862 25.329 67.676 25.989 68.358 26.869C69.04 27.749 69.381 28.904 69.381 30.334C69.381 31.566 69.062 32.71 68.424 33.766C67.786 34.822 66.851 35.669 65.619 36.307C64.387 36.923 62.924 37.231 61.23 37.231ZM104.175 13.966L97.7404 37H92.2954L87.9724 20.599L83.4514 37L78.0394 37.033L71.8354 13.966H76.7854L80.8444 31.852L85.5304 13.966H90.6784L95.1004 31.753L99.1924 13.966H104.175ZM106.07 25.45C106.07 23.184 106.576 21.16 107.588 19.378C108.622 17.574 110.019 16.177 111.779 15.187C113.561 14.175 115.552 13.669 117.752 13.669C120.326 13.669 122.581 14.329 124.517 15.649C126.453 16.969 127.806 18.795 128.576 21.127H123.263C122.735 20.027 121.987 19.202 121.019 18.652C120.073 18.102 118.973 17.827 117.719 17.827C116.377 17.827 115.178 18.146 114.122 18.784C113.088 19.4 112.274 20.28 111.68 21.424C111.108 22.568 110.822 23.91 110.822 25.45C110.822 26.968 111.108 28.31 111.68 29.476C112.274 30.62 113.088 31.511 114.122 32.149C115.178 32.765 116.377 33.073 117.719 33.073C118.973 33.073 120.073 32.798 121.019 32.248C121.987 31.676 122.735 30.84 123.263 29.74H128.576C127.806 32.094 126.453 33.931 124.517 35.251C122.603 36.549 120.348 37.198 117.752 37.198C115.552 37.198 113.561 36.703 111.779 35.713C110.019 34.701 108.622 33.304 107.588 31.522C106.576 29.74 106.07 27.716 106.07 25.45Z" fill="#69933E"/>
</svg>
