<svg width="270" height="86" viewBox="0 0 270 86" fill="none" xmlns="http://www.w3.org/2000/svg">
<path d="M71.2808 48.7885C71.1154 48.7885 70.95 48.7885 70.95 48.7885C68.3039 48.4577 66.1539 47.7961 64.1693 46.3077C64.0039 46.1423 64.0039 46.1423 63.8385 46.1423C62.8462 45.3154 62.0193 45.8115 61.5231 45.9769L61.3577 46.1423C58.8769 47.9615 56.0654 48.9538 52.7577 48.9538C49.2846 48.9538 46.4731 47.9615 43.8269 45.9769C42.8346 45.3154 42.1731 45.9769 42.1731 45.9769C39.5269 48.1269 36.55 49.1192 33.0769 49.1192C29.7693 49.1192 26.7923 48.1269 24.3116 46.1423C24.1462 45.9769 23.9808 45.9769 23.9808 45.8115C23.1539 45.15 22.3269 45.8115 22.3269 45.8115C19.8462 47.7961 17.0346 48.7885 13.8923 48.9538C13.8923 48.9538 12.9 48.9538 12.9 50.1115V69.9577C12.9 71.6115 12.9 73.4308 12.9 74.7538C12.9 75.25 13.2308 76.4077 14.7193 76.7385H45.3154C46.9693 76.4077 47.1346 75.25 47.1346 74.7538C47.1346 73.4308 47.1346 71.7769 47.1346 69.9577C47.1346 65.6577 47.1346 61.5231 47.1346 57.2231C47.3 56.7269 47.4654 56.2308 48.7885 56.2308C53.4193 56.2308 58.05 56.2308 62.6808 56.2308C63.0116 56.2308 63.177 56.2308 63.5077 56.2308C64.0039 56.3961 64.5 56.7269 64.5 57.8846C64.5 62.0192 64.5 65.9885 64.5 69.9577C64.5 71.6115 64.5 73.1 64.5 74.4231C64.5 76.2423 65.8231 76.5731 66.1539 76.5731H70.7846C71.1154 76.5731 72.4385 76.2423 72.4385 74.4231C72.4385 73.1 72.4385 71.6115 72.4385 69.9577V50.6077C72.6039 49.2846 71.9423 48.9538 71.2808 48.7885ZM38.3693 67.8077C38.3693 67.9731 38.3693 68.1385 38.3693 68.3038C38.3693 68.9654 38.0385 69.9577 36.3846 69.9577C31.9193 69.9577 27.4539 69.9577 22.9885 69.9577C21.5 69.9577 21.1693 69.2961 21.0039 68.6346C21.0039 68.4692 21.0039 68.3038 21.0039 67.9731C21.0039 64.9961 21.0039 61.6885 21.0039 58.5462C21.0039 56.2308 22.3269 56.0654 22.8231 56.0654C27.4539 56.0654 32.25 56.0654 36.8808 56.0654C37.3769 56.0654 38.5346 56.3961 38.5346 58.2154C38.3693 61.5231 38.3693 64.6654 38.3693 67.8077Z" fill="#69933E"/>
<path d="M69.9577 42.1731C73.5962 43.1654 76.7385 42.5038 79.3847 39.8577C81.0385 38.2038 82.1962 36.2192 82.527 34.0692C82.527 33.9038 82.527 33.7385 82.527 33.7385C82.1962 32.9115 81.8654 32.0846 81.5347 31.4231C77.5654 24.3115 73.7616 17.2 69.9577 10.0885C69.4616 9.09615 68.3039 9.09615 67.9731 9.09615H17.5308C17.5308 9.09615 16.0424 9.09615 15.5462 10.0885C11.577 17.2 7.77312 24.4769 3.96928 31.4231C3.63851 32.0846 3.30774 33.0769 3.30774 34.0692C3.30774 34.2346 3.30774 34.2346 3.30774 34.4C3.63851 36.7154 4.63082 38.7 6.28466 40.1885C9.26159 42.8346 12.5693 43.4962 16.5385 42.1731C18.6885 41.3462 20.177 40.0231 21.5 38.0385C21.6654 37.8731 21.8308 37.7077 21.9962 37.5423C22.8231 37.0462 23.8154 37.2115 24.477 38.0385C25.1385 39.0308 25.9654 40.0231 26.9577 40.6846C29.7693 42.8346 32.9116 43.1654 36.2193 42.1731C38.3693 41.5115 40.0231 40.0231 41.1808 38.0385C41.8424 37.0462 43.4962 36.8808 44.1577 38.0385C44.4885 38.3692 44.6539 38.8654 44.9847 39.1962C46.6385 41.1808 48.7885 42.3385 51.2693 42.6692C53.5847 43 55.9 42.3385 58.05 41.0154C59.2077 40.1885 60.2 39.1962 60.8616 38.0385C61.6885 37.0462 63.177 37.0462 63.8385 38.0385C65.1616 40.1885 66.8154 41.5115 69.2962 42.1731H69.9577Z" fill="#69933E"/>
<path d="M96.54 39.238C94.8853 39.238 93.3893 38.9547 92.052 38.388C90.7373 37.8213 89.6947 37.0053 88.924 35.94C88.1533 34.8747 87.7567 33.6167 87.734 32.166H92.834C92.902 33.1407 93.242 33.9113 93.854 34.478C94.4887 35.0447 95.35 35.328 96.438 35.328C97.5487 35.328 98.4213 35.0673 99.056 34.546C99.6907 34.002 100.008 33.2993 100.008 32.438C100.008 31.7353 99.7927 31.1573 99.362 30.704C98.9313 30.2507 98.3873 29.8993 97.73 29.65C97.0953 29.378 96.2113 29.0833 95.078 28.766C93.5367 28.3127 92.2787 27.8707 91.304 27.44C90.352 26.9867 89.5247 26.318 88.822 25.434C88.142 24.5273 87.802 23.326 87.802 21.83C87.802 20.4247 88.1533 19.2007 88.856 18.158C89.5587 17.1153 90.5447 16.322 91.814 15.778C93.0833 15.2113 94.534 14.928 96.166 14.928C98.614 14.928 100.597 15.5287 102.116 16.73C103.657 17.9087 104.507 19.5633 104.666 21.694H99.43C99.3847 20.878 99.0333 20.2093 98.376 19.688C97.7413 19.144 96.8913 18.872 95.826 18.872C94.8967 18.872 94.1487 19.11 93.582 19.586C93.038 20.062 92.766 20.7533 92.766 21.66C92.766 22.2947 92.97 22.8273 93.378 23.258C93.8087 23.666 94.33 24.006 94.942 24.278C95.5767 24.5273 96.4607 24.822 97.594 25.162C99.1353 25.6153 100.393 26.0687 101.368 26.522C102.343 26.9753 103.181 27.6553 103.884 28.562C104.587 29.4687 104.938 30.6587 104.938 32.132C104.938 33.4013 104.609 34.58 103.952 35.668C103.295 36.756 102.331 37.6287 101.062 38.286C99.7927 38.9207 98.2853 39.238 96.54 39.238ZM107.841 29.582C107.841 27.6327 108.237 25.9327 109.031 24.482C109.824 23.0087 110.923 21.8753 112.329 21.082C113.734 20.266 115.343 19.858 117.157 19.858C119.491 19.858 121.418 20.4473 122.937 21.626C124.478 22.782 125.509 24.414 126.031 26.522H120.897C120.625 25.706 120.16 25.0713 119.503 24.618C118.868 24.142 118.075 23.904 117.123 23.904C115.763 23.904 114.686 24.4027 113.893 25.4C113.099 26.3747 112.703 27.7687 112.703 29.582C112.703 31.3727 113.099 32.7667 113.893 33.764C114.686 34.7387 115.763 35.226 117.123 35.226C119.049 35.226 120.307 34.3647 120.897 32.642H126.031C125.509 34.682 124.478 36.3027 122.937 37.504C121.395 38.7053 119.469 39.306 117.157 39.306C115.343 39.306 113.734 38.9093 112.329 38.116C110.923 37.3 109.824 36.1667 109.031 34.716C108.237 33.2427 107.841 31.5313 107.841 29.582ZM140.126 19.892C141.554 19.892 142.823 20.2093 143.934 20.844C145.045 21.456 145.906 22.374 146.518 23.598C147.153 24.7993 147.47 26.25 147.47 27.95V39H142.71V28.596C142.71 27.1 142.336 25.9553 141.588 25.162C140.84 24.346 139.82 23.938 138.528 23.938C137.213 23.938 136.171 24.346 135.4 25.162C134.652 25.9553 134.278 27.1 134.278 28.596V39H129.518V13.84H134.278V22.51C134.89 21.694 135.706 21.0593 136.726 20.606C137.746 20.13 138.879 19.892 140.126 19.892ZM150.772 29.514C150.772 27.61 151.146 25.9213 151.894 24.448C152.665 22.9747 153.696 21.8413 154.988 21.048C156.303 20.2547 157.765 19.858 159.374 19.858C160.78 19.858 162.004 20.1413 163.046 20.708C164.112 21.2747 164.962 21.9887 165.596 22.85V20.164H170.39V39H165.596V36.246C164.984 37.13 164.134 37.8667 163.046 38.456C161.981 39.0227 160.746 39.306 159.34 39.306C157.754 39.306 156.303 38.898 154.988 38.082C153.696 37.266 152.665 36.1213 151.894 34.648C151.146 33.152 150.772 31.4407 150.772 29.514ZM165.596 29.582C165.596 28.426 165.37 27.44 164.916 26.624C164.463 25.7853 163.851 25.1507 163.08 24.72C162.31 24.2667 161.482 24.04 160.598 24.04C159.714 24.04 158.898 24.2553 158.15 24.686C157.402 25.1167 156.79 25.7513 156.314 26.59C155.861 27.406 155.634 28.3807 155.634 29.514C155.634 30.6473 155.861 31.6447 156.314 32.506C156.79 33.3447 157.402 33.9907 158.15 34.444C158.921 34.8973 159.737 35.124 160.598 35.124C161.482 35.124 162.31 34.9087 163.08 34.478C163.851 34.0247 164.463 33.39 164.916 32.574C165.37 31.7353 165.596 30.738 165.596 29.582ZM179.799 13.84V39H175.039V13.84H179.799ZM195.654 39L189.262 30.976V39H184.502V13.84H189.262V28.154L195.586 20.164H201.774L193.478 29.616L201.842 39H195.654ZM230.47 20.164L224.962 39H219.828L216.394 25.842L212.96 39H207.792L202.25 20.164H207.078L210.41 34.512L214.014 20.164H219.046L222.582 34.478L225.914 20.164H230.47ZM235.459 17.92C234.621 17.92 233.918 17.6593 233.351 17.138C232.807 16.594 232.535 15.9253 232.535 15.132C232.535 14.3387 232.807 13.6813 233.351 13.16C233.918 12.616 234.621 12.344 235.459 12.344C236.298 12.344 236.989 12.616 237.533 13.16C238.1 13.6813 238.383 14.3387 238.383 15.132C238.383 15.9253 238.1 16.594 237.533 17.138C236.989 17.6593 236.298 17.92 235.459 17.92ZM237.805 20.164V39H233.045V20.164H237.805ZM244.922 17.92C244.061 17.92 243.347 17.6593 242.78 17.138C242.236 16.594 241.964 15.9253 241.964 15.132C241.964 14.3387 242.236 13.6813 242.78 13.16C243.347 12.616 244.061 12.344 244.922 12.344C245.761 12.344 246.452 12.616 246.996 13.16C247.54 13.6813 247.812 14.3387 247.812 15.132C247.812 15.9253 247.54 16.594 246.996 17.138C246.452 17.6593 245.761 17.92 244.922 17.92ZM247.268 42.094C247.268 44.1793 246.747 45.6753 245.704 46.582C244.684 47.5113 243.211 47.976 241.284 47.976H239.176V43.93H240.536C241.261 43.93 241.771 43.7827 242.066 43.488C242.361 43.216 242.508 42.7627 242.508 42.128V20.164H247.268V42.094ZM263.123 39L256.731 30.976V39H251.971V13.84H256.731V28.154L263.055 20.164H269.243L260.947 29.616L269.311 39H263.123ZM109.046 57.946L104.561 74H100.766L97.753 62.569L94.602 74L90.83 74.023L86.506 57.946H89.956L92.785 70.412L96.051 57.946H99.639L102.721 70.343L105.573 57.946H109.046ZM112.782 59.74C112.214 59.74 111.739 59.5637 111.356 59.211C110.988 58.843 110.804 58.3907 110.804 57.854C110.804 57.3173 110.988 56.8727 111.356 56.52C111.739 56.152 112.214 55.968 112.782 55.968C113.349 55.968 113.817 56.152 114.185 56.52C114.568 56.8727 114.76 57.3173 114.76 57.854C114.76 58.3907 114.568 58.843 114.185 59.211C113.817 59.5637 113.349 59.74 112.782 59.74ZM114.369 61.258V74H111.149V61.258H114.369ZM124.611 61.074C126.129 61.074 127.356 61.557 128.291 62.523C129.226 63.4737 129.694 64.8077 129.694 66.525V74H126.474V66.962C126.474 65.95 126.221 65.1757 125.715 64.639C125.209 64.087 124.519 63.811 123.645 63.811C122.756 63.811 122.05 64.087 121.529 64.639C121.023 65.1757 120.77 65.95 120.77 66.962V74H117.55V61.258H120.77V62.845C121.199 62.293 121.744 61.8637 122.403 61.557C123.078 61.235 123.814 61.074 124.611 61.074ZM140.3 74L135.976 68.572V74H132.756V56.98H135.976V66.663L140.254 61.258H144.44L138.828 67.652L144.486 74H140.3ZM158.033 67.353C158.033 67.813 158.002 68.227 157.941 68.595H148.626C148.702 69.515 149.024 70.2357 149.592 70.757C150.159 71.2783 150.857 71.539 151.685 71.539C152.881 71.539 153.732 71.0253 154.238 69.998H157.711C157.343 71.2247 156.637 72.2367 155.595 73.034C154.552 73.816 153.272 74.207 151.754 74.207C150.527 74.207 149.423 73.9387 148.442 73.402C147.476 72.85 146.717 72.0757 146.165 71.079C145.628 70.0823 145.36 68.9323 145.36 67.629C145.36 66.3103 145.628 65.1527 146.165 64.156C146.701 63.1593 147.453 62.3927 148.419 61.856C149.385 61.3193 150.496 61.051 151.754 61.051C152.965 61.051 154.046 61.3117 154.997 61.833C155.963 62.3543 156.706 63.098 157.228 64.064C157.764 65.0147 158.033 66.111 158.033 67.353ZM154.698 66.433C154.682 65.605 154.383 64.9457 153.801 64.455C153.218 63.949 152.505 63.696 151.662 63.696C150.864 63.696 150.19 63.9413 149.638 64.432C149.101 64.9073 148.771 65.5743 148.649 66.433H154.698ZM163.603 56.98V74H160.383V56.98H163.603ZM165.956 67.629C165.956 66.3103 166.225 65.1603 166.761 64.179C167.298 63.1823 168.042 62.4157 168.992 61.879C169.943 61.327 171.032 61.051 172.258 61.051C173.838 61.051 175.141 61.4497 176.168 62.247C177.211 63.029 177.909 64.133 178.261 65.559H174.788C174.604 65.007 174.29 64.5777 173.845 64.271C173.416 63.949 172.879 63.788 172.235 63.788C171.315 63.788 170.587 64.1253 170.05 64.8C169.514 65.4593 169.245 66.4023 169.245 67.629C169.245 68.8403 169.514 69.7833 170.05 70.458C170.587 71.1173 171.315 71.447 172.235 71.447C173.539 71.447 174.39 70.8643 174.788 69.699H178.261C177.909 71.079 177.211 72.1753 176.168 72.988C175.126 73.8007 173.822 74.207 172.258 74.207C171.032 74.207 169.943 73.9387 168.992 73.402C168.042 72.85 167.298 72.0833 166.761 71.102C166.225 70.1053 165.956 68.9477 165.956 67.629ZM192.465 67.353C192.465 67.813 192.435 68.227 192.373 68.595H183.058C183.135 69.515 183.457 70.2357 184.024 70.757C184.592 71.2783 185.289 71.539 186.117 71.539C187.313 71.539 188.164 71.0253 188.67 69.998H192.143C191.775 71.2247 191.07 72.2367 190.027 73.034C188.985 73.816 187.704 74.207 186.186 74.207C184.96 74.207 183.856 73.9387 182.874 73.402C181.908 72.85 181.149 72.0757 180.597 71.079C180.061 70.0823 179.792 68.9323 179.792 67.629C179.792 66.3103 180.061 65.1527 180.597 64.156C181.134 63.1593 181.885 62.3927 182.851 61.856C183.817 61.3193 184.929 61.051 186.186 61.051C187.398 61.051 188.479 61.3117 189.429 61.833C190.395 62.3543 191.139 63.098 191.66 64.064C192.197 65.0147 192.465 66.111 192.465 67.353ZM189.13 66.433C189.115 65.605 188.816 64.9457 188.233 64.455C187.651 63.949 186.938 63.696 186.094 63.696C185.297 63.696 184.622 63.9413 184.07 64.432C183.534 64.9073 183.204 65.5743 183.081 66.433H189.13ZM201.877 61.074C203.395 61.074 204.621 61.557 205.557 62.523C206.492 63.4737 206.96 64.8077 206.96 66.525V74H203.74V66.962C203.74 65.95 203.487 65.1757 202.981 64.639C202.475 64.087 201.785 63.811 200.911 63.811C200.021 63.811 199.316 64.087 198.795 64.639C198.289 65.1757 198.036 65.95 198.036 66.962V74H194.816V61.258H198.036V62.845C198.465 62.293 199.009 61.8637 199.669 61.557C200.343 61.235 201.079 61.074 201.877 61.074ZM213.771 63.903V70.067C213.771 70.4963 213.87 70.8107 214.07 71.01C214.284 71.194 214.637 71.286 215.128 71.286H216.623V74H214.599C211.885 74 210.528 72.6813 210.528 70.044V63.903H209.01V61.258H210.528V58.107H213.771V61.258H216.623V63.903H213.771ZM222.159 63.236C222.573 62.5613 223.109 62.0323 223.769 61.649C224.443 61.2657 225.21 61.074 226.069 61.074V64.455H225.218C224.206 64.455 223.439 64.6927 222.918 65.168C222.412 65.6433 222.159 66.4713 222.159 67.652V74H218.939V61.258H222.159V63.236ZM240.266 61.258V74H237.023V72.39C236.609 72.942 236.065 73.379 235.39 73.701C234.731 74.0077 234.01 74.161 233.228 74.161C232.232 74.161 231.35 73.954 230.583 73.54C229.817 73.1107 229.211 72.4897 228.766 71.677C228.337 70.849 228.122 69.8677 228.122 68.733V61.258H231.342V68.273C231.342 69.285 231.595 70.067 232.101 70.619C232.607 71.1557 233.297 71.424 234.171 71.424C235.061 71.424 235.758 71.1557 236.264 70.619C236.77 70.067 237.023 69.285 237.023 68.273V61.258H240.266ZM259.267 61.074C260.831 61.074 262.089 61.557 263.039 62.523C264.005 63.4737 264.488 64.8077 264.488 66.525V74H261.268V66.962C261.268 65.9653 261.015 65.2063 260.509 64.685C260.003 64.1483 259.313 63.88 258.439 63.88C257.565 63.88 256.868 64.1483 256.346 64.685C255.84 65.2063 255.587 65.9653 255.587 66.962V74H252.367V66.962C252.367 65.9653 252.114 65.2063 251.608 64.685C251.102 64.1483 250.412 63.88 249.538 63.88C248.649 63.88 247.944 64.1483 247.422 64.685C246.916 65.2063 246.663 65.9653 246.663 66.962V74H243.443V61.258H246.663V62.799C247.077 62.2623 247.606 61.8407 248.25 61.534C248.91 61.2273 249.63 61.074 250.412 61.074C251.409 61.074 252.298 61.2887 253.08 61.718C253.862 62.132 254.468 62.73 254.897 63.512C255.311 62.776 255.909 62.1857 256.691 61.741C257.489 61.2963 258.347 61.074 259.267 61.074Z" fill="#69933E"/>
</svg>
